<svg width="85" height="85" viewBox="0 0 85 85" fill="none" xmlns="http://www.w3.org/2000/svg">
<path d="M61.6252 8.5C61.0617 8.5 60.5212 8.72388 60.1226 9.1224C59.7241 9.52091 59.5002 10.0614 59.5002 10.625C59.5002 11.1886 59.7241 11.7291 60.1226 12.1276C60.5212 12.5261 61.0617 12.75 61.6252 12.75H69.2455L48.8752 33.1203L37.6297 21.8705C37.4323 21.6726 37.1978 21.5156 36.9397 21.4085C36.6815 21.3013 36.4048 21.2462 36.1252 21.2462C35.8457 21.2462 35.569 21.3013 35.3108 21.4085C35.0526 21.5156 34.8181 21.6726 34.6207 21.8705L13.3707 43.1205C12.9717 43.5195 12.7476 44.0607 12.7476 44.625C12.7476 45.1893 12.9717 45.7305 13.3707 46.1295C13.7698 46.5285 14.3109 46.7527 14.8752 46.7527C15.4395 46.7527 15.9807 46.5285 16.3797 46.1295L36.1252 26.3797L47.3707 37.6295C47.5681 37.8274 47.8026 37.9844 48.0608 38.0915C48.319 38.1987 48.5957 38.2538 48.8752 38.2538C49.1548 38.2538 49.4315 38.1987 49.6897 38.0915C49.9478 37.9844 50.1823 37.8274 50.3797 37.6295L72.2502 15.7548V23.375C72.2502 23.9386 72.4741 24.4791 72.8726 24.8776C73.2712 25.2761 73.8117 25.5 74.3752 25.5C74.9388 25.5 75.4793 25.2761 75.8778 24.8776C76.2764 24.4791 76.5002 23.9386 76.5002 23.375V10.625C76.5002 10.0614 76.2764 9.52091 75.8778 9.1224C75.4793 8.72388 74.9388 8.5 74.3752 8.5H61.6252ZM65.8752 38.25C65.3117 38.25 64.7712 38.4739 64.3726 38.8724C63.9741 39.2709 63.7502 39.8114 63.7502 40.375V74.375C63.7502 74.9386 63.9741 75.4791 64.3726 75.8776C64.7712 76.2761 65.3117 76.5 65.8752 76.5C66.4388 76.5 66.9793 76.2761 67.3778 75.8776C67.7764 75.4791 68.0002 74.9386 68.0002 74.375V40.375C68.0002 39.8114 67.7764 39.2709 67.3778 38.8724C66.9793 38.4739 66.4388 38.25 65.8752 38.25ZM31.8752 46.75C31.3117 46.75 30.7712 46.9739 30.3726 47.3724C29.9741 47.7709 29.7502 48.3114 29.7502 48.875V74.375C29.7502 74.9386 29.9741 75.4791 30.3726 75.8776C30.7712 76.2761 31.3117 76.5 31.8752 76.5C32.4388 76.5 32.9793 76.2761 33.3778 75.8776C33.7764 75.4791 34.0002 74.9386 34.0002 74.375V48.875C34.0002 48.3114 33.7764 47.7709 33.3778 47.3724C32.9793 46.9739 32.4388 46.75 31.8752 46.75ZM46.7502 57.375C46.7502 56.8114 46.9741 56.2709 47.3726 55.8724C47.7712 55.4739 48.3117 55.25 48.8752 55.25C49.4388 55.25 49.9793 55.4739 50.3778 55.8724C50.7764 56.2709 51.0002 56.8114 51.0002 57.375V74.375C51.0002 74.9386 50.7764 75.4791 50.3778 75.8776C49.9793 76.2761 49.4388 76.5 48.8752 76.5C48.3117 76.5 47.7712 76.2761 47.3726 75.8776C46.9741 75.4791 46.7502 74.9386 46.7502 74.375V57.375ZM12.7502 61.625C12.7502 61.0614 12.9741 60.5209 13.3726 60.1224C13.7712 59.7239 14.3117 59.5 14.8752 59.5C15.4388 59.5 15.9793 59.7239 16.3778 60.1224C16.7764 60.5209 17.0002 61.0614 17.0002 61.625V74.375C17.0002 74.9386 16.7764 75.4791 16.3778 75.8776C15.9793 76.2761 15.4388 76.5 14.8752 76.5C14.3117 76.5 13.7712 76.2761 13.3726 75.8776C12.9741 75.4791 12.7502 74.9386 12.7502 74.375V61.625Z" fill="url(#paint0_linear_13925_1202)"/>
<defs>
<linearGradient id="paint0_linear_13925_1202" x1="44.6239" y1="8.5" x2="44.6239" y2="76.5" gradientUnits="userSpaceOnUse">
<stop stop-color="#5C41DF"/>
<stop offset="1" stop-color="#8FD7A8"/>
</linearGradient>
</defs>
</svg>
