<svg width="85" height="85" viewBox="0 0 85 85" fill="none" xmlns="http://www.w3.org/2000/svg">
<path d="M53.1248 67.291C57.3748 54.2648 62.0711 49.565 74.3748 46.041C62.0711 42.5171 57.3748 37.8173 53.1248 24.791C48.8748 37.8173 44.1786 42.5171 31.8748 46.041C44.1786 49.565 48.8748 54.2648 53.1248 67.291ZM24.7915 35.416C26.9165 28.8993 29.2646 26.5512 35.4165 24.791C29.2646 23.0308 26.9165 20.6827 24.7915 14.166C22.6665 20.6827 20.3184 23.0308 14.1665 24.791C20.3184 26.5512 22.6665 28.8993 24.7915 35.416ZM30.104 70.8327C31.1665 67.5744 32.3388 66.4021 35.4165 65.5202C32.3388 64.6383 31.1665 63.466 30.104 60.2077C29.0415 63.466 27.8692 64.6383 24.7915 65.5202C27.8692 66.4021 29.0415 67.5744 30.104 70.8327Z" stroke="url(#paint0_linear_13925_1198)" stroke-width="3" stroke-linejoin="round"/>
<defs>
<linearGradient id="paint0_linear_13925_1198" x1="44.2707" y1="14.166" x2="44.2707" y2="70.8327" gradientUnits="userSpaceOnUse">
<stop stop-color="#5C41DF"/>
<stop offset="1" stop-color="#8FD7A8"/>
</linearGradient>
</defs>
</svg>
