<svg width="32" height="32" viewBox="0 0 32 32" fill="none" xmlns="http://www.w3.org/2000/svg">
<path d="M18.6154 8.82715H3C1.89543 8.82715 1 9.72258 1 10.8271V20.6733C1 21.7779 1.89543 22.6733 3 22.6733H18.6154C19.72 22.6733 20.6154 21.7779 20.6154 20.6733V10.8271C20.6154 9.72258 19.72 8.82715 18.6154 8.82715Z" fill="url(#paint0_linear_13925_1376)"/>
<path d="M22.295 16.4484C21.9167 16.0601 21.9167 15.4411 22.295 15.0527L27.6873 9.51804C28.3134 8.87542 29.4036 9.31868 29.4036 10.2159V21.2853C29.4036 22.1825 28.3134 22.6257 27.6873 21.9831L22.295 16.4484Z" fill="url(#paint1_linear_13925_1376)"/>
<defs>
<linearGradient id="paint0_linear_13925_1376" x1="10.8077" y1="8.82715" x2="10.8077" y2="22.6733" gradientUnits="userSpaceOnUse">
<stop stop-color="#5C41DF"/>
<stop offset="1" stop-color="#8FD7A8"/>
</linearGradient>
<linearGradient id="paint1_linear_13925_1376" x1="25.7074" y1="9.21387" x2="25.7074" y2="22.2872" gradientUnits="userSpaceOnUse">
<stop stop-color="#5C41DF"/>
<stop offset="1" stop-color="#8FD7A8"/>
</linearGradient>
</defs>
</svg>
