<svg width="85" height="89" viewBox="0 0 85 89" fill="none" xmlns="http://www.w3.org/2000/svg">
<path d="M72.8058 37.8576C73.5879 35.4561 73.8596 32.9163 73.6034 30.4026C73.3472 27.8889 72.5687 25.4573 71.3183 23.2652C67.4686 16.4976 59.6875 13.0693 52.08 14.65C48.7544 10.8728 43.8598 8.76172 38.7846 8.76172C35.0071 8.76214 31.326 9.96001 28.265 12.1849C25.2039 14.4098 22.9189 17.5484 21.735 21.1541C19.2709 21.6646 16.9434 22.6969 14.9073 24.1825C12.8713 25.668 11.1735 27.5725 9.9271 29.7693C8.05062 33.0582 7.25217 36.8577 7.64505 40.6285C8.03793 44.3993 9.60217 47.95 12.1158 50.7768C11.3437 53.1844 11.0847 55.7283 11.3556 58.2432C11.6266 60.758 12.4214 63.1873 13.6883 65.3728C15.5661 68.6792 18.4443 71.2972 21.9043 72.846C25.3643 74.3948 29.2256 74.7936 32.9267 73.9845C34.6041 75.8586 36.6535 77.3587 38.9428 78.3882C41.2321 79.4177 43.7106 79.9537 46.2186 79.9617C49.9966 79.9621 53.6785 78.7645 56.7403 76.5396C59.802 74.3146 62.0876 71.1756 63.2717 67.5694C65.7351 67.0584 68.062 66.0258 70.0974 64.5403C72.1328 63.0548 73.83 61.1505 75.076 58.9542C76.962 55.6469 77.7577 51.8244 77.3493 48.0345C76.9408 44.2447 75.3526 40.6821 72.8058 37.8576ZM46.2186 75.3017C43.116 75.3298 40.1064 74.2385 37.7363 72.2258C37.8248 72.1368 38.0869 72.0478 38.1754 71.9624L52.2536 63.7886C52.6035 63.5822 52.893 63.2865 53.0927 62.9314C53.2923 62.5763 53.395 62.1744 53.3904 61.7666V41.8128L59.3369 45.241C59.4254 45.241 59.4254 45.3265 59.4254 45.419V61.941C59.4428 63.6932 59.1137 65.4314 58.4572 67.0547C57.8007 68.678 56.8299 70.154 55.6012 71.397C54.3725 72.6401 52.9103 73.6253 51.2996 74.2956C49.6889 74.9659 47.9618 75.3079 46.2186 75.3017ZM17.7081 63.0838C16.1356 60.3604 15.6115 57.1955 16.1356 54.1197C16.2242 54.2051 16.4013 54.2977 16.5748 54.3831L30.6529 62.5569C30.993 62.7733 31.3873 62.8883 31.7898 62.8883C32.1923 62.8883 32.5866 62.7733 32.9267 62.5569L50.1533 52.5355V59.4775C50.1533 59.57 50.1533 59.6555 50.0683 59.6555L35.8131 67.9182C29.5161 71.61 21.3808 69.4134 17.7081 63.0838ZM14.0425 32.1474C15.6166 29.4566 18.0509 27.3811 20.9488 26.2591V43.1335C20.9488 43.9274 21.3879 44.7177 22.0856 45.1556L39.3158 55.177L33.3658 58.6053C33.2808 58.6053 33.1923 58.6943 33.1923 58.6053L18.9371 50.339C17.4165 49.4779 16.0815 48.3212 15.01 46.9364C13.9385 45.5516 13.1519 43.9662 12.696 42.2728C12.2402 40.5793 12.1241 38.8116 12.3547 37.0726C12.5852 35.3336 13.1578 33.6581 14.039 32.1438M63.0096 43.5714L45.7829 33.55L51.7294 30.1217C51.8144 30.1217 51.9065 30.0327 51.9065 30.1217L66.1581 38.3809C67.6673 39.254 68.9897 40.4185 70.0492 41.8075C71.1086 43.1965 71.8842 44.7824 72.3313 46.474C72.7783 48.1656 72.888 49.9294 72.654 51.6638C72.42 53.3982 71.8469 55.0689 70.9677 56.5796C69.4148 59.2689 66.9699 61.3231 64.0615 62.3824V45.5935C64.0901 45.1915 64.0068 44.7895 63.821 44.4324C63.6353 44.0753 63.3543 43.7771 63.0096 43.5714ZM68.8675 34.6038C68.7357 34.4953 68.5889 34.4066 68.4319 34.3403L54.3538 26.1666C54.0137 25.9501 53.6194 25.8352 53.2169 25.8352C52.8144 25.8352 52.4201 25.9501 52.08 26.1666L34.8498 36.188V29.2424C34.8498 29.1534 34.8498 29.0644 34.9383 29.0644L49.1936 20.8052C50.7017 19.9275 52.3677 19.3585 54.0956 19.1309C55.8234 18.9032 57.5791 19.0214 59.2613 19.4788C60.9435 19.9361 62.5191 20.7234 63.8973 21.7955C65.2754 22.8675 66.429 24.203 67.2915 25.7251C68.8675 28.3631 69.3917 31.5279 68.8675 34.6038ZM31.6163 46.9107L25.6663 43.4824C25.5813 43.4824 25.5813 43.3934 25.5813 43.3044V26.786C25.5799 25.0311 25.9227 23.2931 26.5902 21.6714C27.2577 20.0498 28.2367 18.5764 29.4712 17.3354C30.7058 16.0945 32.1716 15.1104 33.7849 14.4395C35.3982 13.7685 37.1272 13.4239 38.8731 13.4253C41.9757 13.3972 44.9853 14.4885 47.3554 16.5012C47.2236 16.6096 47.0769 16.6983 46.9198 16.7646L32.8417 24.9348C32.4917 25.1412 32.2022 25.437 32.0026 25.7921C31.8029 26.1472 31.7002 26.549 31.7048 26.9569V46.9107H31.6163ZM34.8498 39.8797L42.5458 35.3941L50.2419 39.8797V48.7548L42.5458 53.2404L34.8498 48.7548V39.8797Z" fill="url(#paint0_linear_13925_1206)"/>
<defs>
<linearGradient id="paint0_linear_13925_1206" x1="42.5005" y1="8.76172" x2="42.5005" y2="79.9617" gradientUnits="userSpaceOnUse">
<stop stop-color="#5C41DF"/>
<stop offset="1" stop-color="#8FD7A8"/>
</linearGradient>
</defs>
</svg>
