<svg width="85" height="85" viewBox="0 0 85 85" fill="none" xmlns="http://www.w3.org/2000/svg">
<path d="M27.4481 66.6122V50.3984L40.4566 58.5017L27.4481 66.6122ZM46.0418 34.0572C43.3927 34.0572 41.1414 33.1304 39.2879 31.277C37.4344 29.4235 36.5077 27.1757 36.5077 24.5336C36.5077 21.8915 37.4344 19.639 39.2879 17.7761C41.1414 15.9132 43.3927 14.9829 46.0418 14.9853H49.3781V18.1161H46.0418C44.2639 18.1161 42.7528 18.7406 41.5085 19.9897C40.2642 21.2387 39.6409 22.7545 39.6385 24.5372C39.6361 26.3198 40.2583 27.8297 41.505 29.067C42.7516 30.3042 44.2639 30.9216 46.0418 30.9192H49.3781V34.0536L46.0418 34.0572ZM56.8723 34.0572V30.9192H60.2085C61.9864 30.9192 63.4975 30.2947 64.7418 29.0457C65.9861 27.7967 66.6095 26.2808 66.6118 24.4982C66.6142 22.7156 65.9909 21.2056 64.7418 19.9684C63.4928 18.7312 61.9817 18.1149 60.2085 18.1197H56.8723V14.9817H60.2085C62.8577 14.9817 65.109 15.9073 66.9625 17.7584C68.8159 19.6095 69.7427 21.8573 69.7427 24.5017C69.7427 27.1462 68.8159 29.3987 66.9625 31.2592C65.109 33.1198 62.8577 34.0524 60.2085 34.0572H56.8723ZM47.1327 26.0884V22.9505H59.1177V26.0813L47.1327 26.0884ZM55.0448 46.3822V42.8405H72.1935C72.831 42.8405 73.354 42.6363 73.7625 42.2278C74.1709 41.8193 74.3752 41.2975 74.3752 40.6624V13.1401C74.3752 12.5049 74.1709 11.9831 73.7625 11.5747C73.354 11.1662 72.8322 10.962 72.197 10.962H34.0533C33.4182 10.962 32.8964 11.1662 32.4879 11.5747C32.0794 11.9831 31.8752 12.5073 31.8752 13.1472V40.797H28.3335V13.1472C28.3335 11.5723 28.8943 10.2253 30.0158 9.10612C31.1373 7.98695 32.4832 7.42619 34.0533 7.42383H72.197C73.7695 7.42383 75.1154 7.98459 76.2345 9.10612C77.3537 10.2276 77.9145 11.5723 77.9168 13.1401V40.6588C77.9168 42.2313 77.3561 43.5772 76.2345 44.6963C75.1154 45.8179 73.7695 46.3786 72.197 46.3786L55.0448 46.3822ZM12.8068 77.5772C11.232 77.5772 9.88378 77.0164 8.76225 75.8949C7.64073 74.7733 7.08114 73.4287 7.0835 71.8609V45.1567C7.0835 43.5842 7.64427 42.2384 8.76579 41.1192C9.88496 39.9954 11.2308 39.4334 12.8033 39.4334H50.947C52.5195 39.4334 53.8654 39.9942 54.9845 41.1157C56.1061 42.2372 56.6668 43.5842 56.6668 45.1567V71.8574C56.6668 73.4299 56.1061 74.7757 54.9845 75.8949C53.863 77.014 52.5172 77.5748 50.947 77.5772H12.8068ZM12.8068 74.0355H50.947C51.5822 74.0355 52.104 73.8313 52.5125 73.4228C52.9209 73.0143 53.1252 72.4925 53.1252 71.8574V45.1567C53.1252 44.5192 52.9209 43.9974 52.5125 43.5913C52.104 43.1829 51.581 42.9786 50.9435 42.9786H12.8068C12.1693 42.9786 11.6464 43.1829 11.2379 43.5913C10.8294 43.9998 10.6252 44.5216 10.6252 45.1567V71.8574C10.6252 72.4925 10.8294 73.0143 11.2379 73.4228C11.6464 73.8313 12.1693 74.0355 12.8068 74.0355Z" fill="url(#paint0_linear_13925_1210)"/>
<defs>
<linearGradient id="paint0_linear_13925_1210" x1="42.5002" y1="7.42383" x2="42.5002" y2="77.5772" gradientUnits="userSpaceOnUse">
<stop stop-color="#5C41DF"/>
<stop offset="1" stop-color="#8FD7A8"/>
</linearGradient>
</defs>
</svg>
