<svg width="85" height="85" viewBox="0 0 85 85" fill="none" xmlns="http://www.w3.org/2000/svg">
<path d="M66.4062 51.1328C64.0301 51.1316 61.7325 51.9835 59.9316 53.5334L51.4249 46.916C52.1075 45.5441 52.4622 44.0324 52.4609 42.5C52.4597 42.1005 52.4353 41.7014 52.3878 41.3047L57.7734 39.5117C58.979 41.6062 60.905 43.1909 63.1924 43.9706C65.4799 44.7503 67.9728 44.6718 70.2066 43.7498C72.4405 42.8277 74.263 41.125 75.3345 38.9588C76.406 36.7927 76.6535 34.3109 76.0308 31.9758C75.4081 29.6407 73.9577 27.6116 71.9499 26.2666C69.9421 24.9216 67.5138 24.3525 65.1174 24.6651C62.721 24.9778 60.5201 26.151 58.9246 27.9662C57.3291 29.7813 56.4479 32.1146 56.4452 34.5313C56.4464 34.9308 56.4708 35.3299 56.5183 35.7266L51.1327 37.5196C50.079 35.6838 48.4664 34.2328 46.5299 33.378C44.5935 32.5233 42.4347 32.3096 40.3683 32.7682L37.6655 26.692C39.6749 25.2591 41.0808 23.1312 41.6107 20.7208C42.1406 18.3104 41.7568 15.789 40.5337 13.6455C39.3106 11.5019 37.3353 9.88871 34.9905 9.11854C32.6458 8.34837 30.0986 8.47607 27.8427 9.47689C25.5868 10.4777 23.7827 12.2804 22.7801 14.5355C21.7775 16.7907 21.6478 19.3377 22.4161 21.6831C23.1845 24.0284 24.7961 26.005 26.9387 27.2298C29.0814 28.4546 31.6024 28.8403 34.0132 28.3123L36.7159 34.3885C34.6965 35.8247 33.2867 37.9639 32.7633 40.3861C32.2399 42.8082 32.6407 45.3386 33.887 47.4805L24.5702 55.7813C22.589 54.298 20.1277 53.6032 17.6633 53.8316C15.1989 54.0599 12.9071 55.195 11.2321 57.017C9.55711 58.839 8.61825 61.218 8.59752 63.6928C8.57679 66.1676 9.47567 68.562 11.1199 70.4118C12.7642 72.2616 15.0366 73.435 17.4968 73.7046C19.957 73.9741 22.4297 73.3206 24.4355 71.8708C26.4413 70.421 27.8373 68.278 28.353 65.8574C28.8686 63.4369 28.4672 60.911 27.2265 58.7696L36.5234 50.4688C38.3331 51.8289 40.5532 52.53 42.8159 52.4557C45.0786 52.3814 47.2479 51.5363 48.9646 50.0604L57.4712 56.6778C56.5114 58.6184 56.21 60.819 56.6126 62.9463C57.0153 65.0736 58.1001 67.0118 59.7028 68.4674C61.3055 69.923 63.3388 70.8169 65.4949 71.0135C67.6511 71.2102 69.8126 70.699 71.6522 69.5574C73.4918 68.4157 74.9093 66.7058 75.6902 64.6865C76.4711 62.6671 76.5728 60.4483 75.9799 58.366C75.387 56.2837 74.1318 54.4513 72.4044 53.1461C70.6769 51.841 68.5712 51.1342 66.4062 51.1328ZM66.4062 28.5547C67.5882 28.5547 68.7437 28.9052 69.7266 29.5619C70.7094 30.2187 71.4754 31.1521 71.9278 32.2441C72.3801 33.3362 72.4985 34.5379 72.2679 35.6972C72.0373 36.8566 71.4681 37.9215 70.6322 38.7573C69.7964 39.5932 68.7315 40.1624 67.5721 40.393C66.4128 40.6236 65.2111 40.5052 64.119 40.0529C63.027 39.6005 62.0936 38.8345 61.4368 37.8517C60.7801 36.8688 60.4296 35.7133 60.4296 34.5313C60.4296 32.9462 61.0593 31.426 62.1801 30.3052C63.3009 29.1844 64.8211 28.5547 66.4062 28.5547ZM25.8984 18.5938C25.8984 17.4117 26.2489 16.2562 26.9056 15.2734C27.5623 14.2905 28.4957 13.5245 29.5878 13.0721C30.6799 12.6198 31.8815 12.5014 33.0409 12.732C34.2002 12.9627 35.2652 13.5319 36.101 14.3677C36.9368 15.2035 37.506 16.2685 37.7366 17.4278C37.9673 18.5871 37.8489 19.7888 37.3965 20.8809C36.9442 21.973 36.1782 22.9064 35.1953 23.5631C34.2125 24.2198 33.057 24.5703 31.8749 24.5703C30.2898 24.5703 28.7697 23.9407 27.6489 22.8198C26.528 21.699 25.8984 20.1789 25.8984 18.5938ZM18.5937 69.7266C17.4116 69.7266 16.2561 69.3761 15.2733 68.7193C14.2904 68.0626 13.5244 67.1292 13.072 66.0372C12.6197 64.9451 12.5013 63.7434 12.7319 62.584C12.9626 61.4247 13.5318 60.3598 14.3676 59.524C15.2034 58.6881 16.2684 58.1189 17.4277 57.8883C18.587 57.6577 19.7887 57.776 20.8808 58.2284C21.9729 58.6807 22.9063 59.4468 23.563 60.4296C24.2197 61.4125 24.5702 62.568 24.5702 63.75C24.5702 65.3351 23.9406 66.8553 22.8197 67.9761C21.6989 69.0969 20.1788 69.7266 18.5937 69.7266ZM42.4999 48.4766C41.3179 48.4766 40.1624 48.1261 39.1795 47.4693C38.1967 46.8126 37.4306 45.8792 36.9783 44.7872C36.5259 43.6951 36.4076 42.4934 36.6382 41.3341C36.8688 40.1747 37.438 39.1098 38.2739 38.274C39.1097 37.4381 40.1746 36.8689 41.334 36.6383C42.4933 36.4077 43.695 36.526 44.7871 36.9784C45.8791 37.4308 46.8125 38.1968 47.4692 39.1796C48.126 40.1625 48.4765 41.318 48.4765 42.5C48.4765 44.0851 47.8468 45.6053 46.726 46.7261C45.6052 47.8469 44.085 48.4766 42.4999 48.4766ZM66.4062 67.0703C65.2241 67.0703 64.0686 66.7198 63.0858 66.0631C62.1029 65.4064 61.3369 64.473 60.8845 63.3809C60.4322 62.2888 60.3138 61.0871 60.5444 59.9278C60.7751 58.7685 61.3443 57.7035 62.1801 56.8677C63.0159 56.0319 64.0809 55.4627 65.2402 55.232C66.3995 55.0014 67.6012 55.1198 68.6933 55.5721C69.7854 56.0245 70.7188 56.7905 71.3755 57.7734C72.0322 58.7562 72.3827 59.9117 72.3827 61.0938C72.3827 62.6789 71.7531 64.199 70.6322 65.3198C69.5114 66.4407 67.9913 67.0703 66.4062 67.0703Z" fill="url(#paint0_linear_13925_1214)"/>
<defs>
<linearGradient id="paint0_linear_13925_1214" x1="42.4821" y1="8.62109" x2="42.4821" y2="73.764" gradientUnits="userSpaceOnUse">
<stop stop-color="#5C41DF"/>
<stop offset="1" stop-color="#8FD7A8"/>
</linearGradient>
</defs>
</svg>
